<svg width="63" height="63" viewBox="0 0 63 63" fill="none" xmlns="http://www.w3.org/2000/svg">
<path fill-rule="evenodd" clip-rule="evenodd" d="M31.75 0.281866C14.5105 0.281869 0.531252 14.2577 0.531255 31.5006C0.531258 48.7401 14.5105 62.7194 31.75 62.7194C48.9895 62.7194 62.9688 48.7401 62.9688 31.5006C62.9688 14.2577 48.9895 0.281863 31.75 0.281866Z" fill="#E3F8FF"/>
<path fill-rule="evenodd" clip-rule="evenodd" d="M31.75 0.281866C14.5105 0.281869 0.531252 14.2577 0.531255 31.5006C0.531258 48.7401 14.5105 62.7194 31.75 62.7194C48.9895 62.7194 62.9688 48.7401 62.9688 31.5006C62.9688 14.2577 48.9895 0.281863 31.75 0.281866Z" fill="black" fill-opacity="0.2"/>
<path fill-rule="evenodd" clip-rule="evenodd" d="M31.75 0.281866C14.5105 0.281869 0.531252 14.2577 0.531255 31.5006C0.531258 48.7401 14.5105 62.7194 31.75 62.7194C48.9895 62.7194 62.9688 48.7401 62.9688 31.5006C62.9688 14.2577 48.9895 0.281863 31.75 0.281866Z" fill="black" fill-opacity="0.2"/>
<path fill-rule="evenodd" clip-rule="evenodd" d="M36.6182 19.7853L24.8529 31.4999L36.6182 43.2145" fill="#E3F8FF"/>
<path fill-rule="evenodd" clip-rule="evenodd" d="M36.6182 19.7853L24.8529 31.4999L36.6182 43.2145" fill="black" fill-opacity="0.2"/>
<path fill-rule="evenodd" clip-rule="evenodd" d="M36.6182 19.7853L24.8529 31.4999L36.6182 43.2145" fill="black" fill-opacity="0.2"/>
<path d="M36.6182 19.7853L24.8529 31.4999L36.6182 43.2145" stroke="white" stroke-width="4" stroke-linecap="round" stroke-linejoin="round"/>
</svg>
