<svg width="18" height="31" viewBox="0 0 18 31" fill="none" xmlns="http://www.w3.org/2000/svg">
<path fill-rule="evenodd" clip-rule="evenodd" d="M2.76 7.98C2.76 5.1264 5.5968 2.76 8.58 2.76C11.5632 2.76 14.4 5.1264 14.4 7.98C14.4 10.6176 13.0632 11.8536 11.2656 13.4496L11.1912 13.5144C9.408 15.096 7.2 17.052 7.2 20.94C7.2 21.1212 7.23569 21.3007 7.30505 21.4681C7.3744 21.6355 7.47605 21.7877 7.60419 21.9158C7.73234 22.044 7.88447 22.1456 8.0519 22.215C8.21933 22.2843 8.39878 22.32 8.58 22.32C8.76122 22.32 8.94067 22.2843 9.1081 22.215C9.27553 22.1456 9.42766 22.044 9.55581 21.9158C9.68395 21.7877 9.7856 21.6355 9.85495 21.4681C9.92431 21.3007 9.96 21.1212 9.96 20.94C9.96 18.336 11.2896 17.1144 13.0968 15.516L13.1448 15.468C14.94 13.8792 17.16 11.9112 17.16 7.98C17.16 3.2472 12.7056 0 8.58 0C4.4544 0 0 3.2472 0 7.98C-5.4009e-09 8.16122 0.035695 8.34067 0.105046 8.5081C0.174398 8.67553 0.276048 8.82766 0.404193 8.95581C0.532338 9.08395 0.684467 9.1856 0.851897 9.25495C1.01933 9.3243 1.19878 9.36 1.38 9.36C1.56122 9.36 1.74067 9.3243 1.9081 9.25495C2.07553 9.1856 2.22766 9.08395 2.35581 8.95581C2.48395 8.82766 2.5856 8.67553 2.65495 8.5081C2.72431 8.34067 2.76 8.16122 2.76 7.98ZM8.58 30.1992C9.13696 30.1992 9.6711 29.978 10.0649 29.5841C10.4587 29.1903 10.68 28.6562 10.68 28.0992C10.68 27.5422 10.4587 27.0081 10.0649 26.6143C9.6711 26.2204 9.13696 25.9992 8.58 25.9992C8.02305 25.9992 7.4889 26.2204 7.09508 26.6143C6.70125 27.0081 6.48 27.5422 6.48 28.0992C6.48 28.6562 6.70125 29.1903 7.09508 29.5841C7.4889 29.978 8.02305 30.1992 8.58 30.1992Z" fill="white"/>
</svg>
