<svg width="63" height="63" viewBox="0 0 63 63" fill="none" xmlns="http://www.w3.org/2000/svg">
<path fill-rule="evenodd" clip-rule="evenodd" d="M31.25 62.718C48.4895 62.718 62.4688 48.7421 62.4688 31.4993C62.4688 14.2598 48.4895 0.280526 31.25 0.280525C14.0105 0.280523 0.0312542 14.2598 0.0312527 31.4993C0.0312512 48.7421 14.0105 62.718 31.25 62.718Z" fill="#E3F8FF"/>
<path fill-rule="evenodd" clip-rule="evenodd" d="M31.25 62.718C48.4895 62.718 62.4688 48.7421 62.4688 31.4993C62.4688 14.2598 48.4895 0.280526 31.25 0.280525C14.0105 0.280523 0.0312542 14.2598 0.0312527 31.4993C0.0312512 48.7421 14.0105 62.718 31.25 62.718Z" fill="black" fill-opacity="0.2"/>
<path fill-rule="evenodd" clip-rule="evenodd" d="M31.25 62.718C48.4895 62.718 62.4688 48.7421 62.4688 31.4993C62.4688 14.2598 48.4895 0.280526 31.25 0.280525C14.0105 0.280523 0.0312542 14.2598 0.0312527 31.4993C0.0312512 48.7421 14.0105 62.718 31.25 62.718Z" fill="black" fill-opacity="0.2"/>
<path fill-rule="evenodd" clip-rule="evenodd" d="M26.3818 43.2146L38.1471 31.5L26.3818 19.7853" fill="#E3F8FF"/>
<path fill-rule="evenodd" clip-rule="evenodd" d="M26.3818 43.2146L38.1471 31.5L26.3818 19.7853" fill="black" fill-opacity="0.2"/>
<path fill-rule="evenodd" clip-rule="evenodd" d="M26.3818 43.2146L38.1471 31.5L26.3818 19.7853" fill="black" fill-opacity="0.2"/>
<path d="M26.3818 43.2146L38.1471 31.5L26.3818 19.7853" stroke="white" stroke-width="4" stroke-linecap="round" stroke-linejoin="round"/>
</svg>
