<svg width="32" height="32" viewBox="0 0 32 32" fill="none" xmlns="http://www.w3.org/2000/svg">
<path d="M29.948 7.99967C28.9214 8.46634 27.8147 8.77301 26.668 8.91967C27.8414 8.21301 28.748 7.09301 29.1747 5.74634C28.068 6.41301 26.8414 6.87967 25.548 7.14634C24.4947 5.99967 23.0147 5.33301 21.3347 5.33301C18.2014 5.33301 15.6414 7.89301 15.6414 11.053C15.6414 11.5063 15.6947 11.9463 15.788 12.3597C11.0414 12.1197 6.81469 9.83967 4.00135 6.38634C3.50802 7.22634 3.22802 8.21301 3.22802 9.25301C3.22802 11.2397 4.22802 12.9997 5.77469 13.9997C4.82802 13.9997 3.94802 13.733 3.17469 13.333V13.373C3.17469 16.1463 5.14802 18.4663 7.76135 18.9863C6.92232 19.216 6.04148 19.2479 5.18802 19.0797C5.55016 20.2163 6.2594 21.2109 7.21604 21.9236C8.17268 22.6363 9.32862 23.0313 10.5214 23.053C8.49953 24.6536 5.99335 25.5188 3.41469 25.5063C2.96135 25.5063 2.50802 25.4797 2.05469 25.4263C4.58802 27.053 7.60135 27.9997 10.828 27.9997C21.3347 27.9997 27.108 19.2797 27.108 11.7197C27.108 11.4663 27.108 11.2263 27.0947 10.973C28.2147 10.173 29.1747 9.15967 29.948 7.99967Z" fill="#676767"/>
</svg>
